<?xml version="1.0" encoding="UTF-8" standalone="no"?><!-- Generator: Gravit.io --><svg xmlns="http://www.w3.org/2000/svg" xmlns:xlink="http://www.w3.org/1999/xlink" style="isolation:isolate" viewBox="0 0 272.16 71.712" width="272.16pt" height="71.712pt"><defs><clipPath id="_clipPath_p1zIZXaBudtl2GKslch6MxKQMiUqp9yn"><rect width="272.16" height="71.712"/></clipPath></defs><g clip-path="url(#_clipPath_p1zIZXaBudtl2GKslch6MxKQMiUqp9yn)"><path d=" M 0 28.944 L 0 28.944 L 0 28.944 Q 0 35.064 2.052 40.032 L 2.052 40.032 L 2.052 40.032 Q 4.104 45 7.776 48.492 L 7.776 48.492 L 7.776 48.492 Q 11.448 51.984 16.488 53.856 L 16.488 53.856 L 16.488 53.856 Q 21.528 55.728 27.504 55.728 L 27.504 55.728 L 27.504 55.728 Q 33.48 55.728 38.52 53.856 L 38.52 53.856 L 38.52 53.856 Q 43.56 51.984 47.232 48.492 L 47.232 48.492 L 47.232 48.492 Q 50.904 45 52.956 40.032 L 52.956 40.032 L 52.956 40.032 Q 55.008 35.064 55.008 28.944 L 55.008 28.944 L 55.008 28.944 Q 55.008 22.824 52.956 17.856 L 52.956 17.856 L 52.956 17.856 Q 50.904 12.888 47.232 9.396 L 47.232 9.396 L 47.232 9.396 Q 43.56 5.904 38.52 4.032 L 38.52 4.032 L 38.52 4.032 Q 33.48 2.16 27.504 2.16 L 27.504 2.16 L 27.504 2.16 Q 21.528 2.16 16.488 4.032 L 16.488 4.032 L 16.488 4.032 Q 11.448 5.904 7.776 9.396 L 7.776 9.396 L 7.776 9.396 Q 4.104 12.888 2.052 17.856 L 2.052 17.856 L 2.052 17.856 Q 0 22.824 0 28.944 Z  M 11.664 28.944 L 11.664 28.944 L 11.664 28.944 Q 11.664 25.416 12.78 22.392 L 12.78 22.392 L 12.78 22.392 Q 13.896 19.368 15.984 17.172 L 15.984 17.172 L 15.984 17.172 Q 18.072 14.976 20.988 13.752 L 20.988 13.752 L 20.988 13.752 Q 23.904 12.528 27.504 12.528 L 27.504 12.528 L 27.504 12.528 Q 31.104 12.528 34.02 13.752 L 34.02 13.752 L 34.02 13.752 Q 36.936 14.976 39.024 17.172 L 39.024 17.172 L 39.024 17.172 Q 41.112 19.368 42.228 22.392 L 42.228 22.392 L 42.228 22.392 Q 43.344 25.416 43.344 28.944 L 43.344 28.944 L 43.344 28.944 Q 43.344 32.544 42.228 35.532 L 42.228 35.532 L 42.228 35.532 Q 41.112 38.52 39.024 40.716 L 39.024 40.716 L 39.024 40.716 Q 36.936 42.912 34.02 44.136 L 34.02 44.136 L 34.02 44.136 Q 31.104 45.36 27.504 45.36 L 27.504 45.36 L 27.504 45.36 Q 23.904 45.36 20.988 44.136 L 20.988 44.136 L 20.988 44.136 Q 18.072 42.912 15.984 40.716 L 15.984 40.716 L 15.984 40.716 Q 13.896 38.52 12.78 35.532 L 12.78 35.532 L 12.78 35.532 Q 11.664 32.544 11.664 28.944 Z  M 84.96 30.744 L 92.088 23.256 L 92.088 23.256 Q 89.568 20.664 86.148 19.62 L 86.148 19.62 L 86.148 19.62 Q 82.728 18.576 79.632 18.576 L 79.632 18.576 L 79.632 18.576 Q 75.6 18.576 72.036 19.872 L 72.036 19.872 L 72.036 19.872 Q 68.472 21.168 65.844 23.58 L 65.844 23.58 L 65.844 23.58 Q 63.216 25.992 61.704 29.376 L 61.704 29.376 L 61.704 29.376 Q 60.192 32.76 60.192 36.936 L 60.192 36.936 L 60.192 36.936 Q 60.192 41.112 61.704 44.496 L 61.704 44.496 L 61.704 44.496 Q 63.216 47.88 65.844 50.292 L 65.844 50.292 L 65.844 50.292 Q 68.472 52.704 72.036 54 L 72.036 54 L 72.036 54 Q 75.6 55.296 79.632 55.296 L 79.632 55.296 L 79.632 55.296 Q 82.728 55.296 86.148 54.252 L 86.148 54.252 L 86.148 54.252 Q 89.568 53.208 92.088 50.616 L 92.088 50.616 L 84.96 43.128 L 84.96 43.128 Q 84.024 44.208 82.728 45 L 82.728 45 L 82.728 45 Q 81.432 45.792 79.632 45.792 L 79.632 45.792 L 79.632 45.792 Q 75.528 45.792 73.26 43.344 L 73.26 43.344 L 73.26 43.344 Q 70.992 40.896 70.992 36.936 L 70.992 36.936 L 70.992 36.936 Q 70.992 32.976 73.26 30.528 L 73.26 30.528 L 73.26 30.528 Q 75.528 28.08 79.632 28.08 L 79.632 28.08 L 79.632 28.08 Q 81.288 28.08 82.728 28.836 L 82.728 28.836 L 82.728 28.836 Q 84.168 29.592 84.96 30.744 L 84.96 30.744 Z  M 129.672 54.432 L 129.672 19.44 L 118.872 19.44 L 118.872 36.864 L 118.872 36.864 Q 118.872 38.592 118.656 40.176 L 118.656 40.176 L 118.656 40.176 Q 118.44 41.76 117.756 43.02 L 117.756 43.02 L 117.756 43.02 Q 117.072 44.28 115.776 45.036 L 115.776 45.036 L 115.776 45.036 Q 114.48 45.792 112.392 45.792 L 112.392 45.792 L 112.392 45.792 Q 110.304 45.792 109.188 44.928 L 109.188 44.928 L 109.188 44.928 Q 108.072 44.064 107.532 42.696 L 107.532 42.696 L 107.532 42.696 Q 106.992 41.328 106.884 39.708 L 106.884 39.708 L 106.884 39.708 Q 106.776 38.088 106.776 36.576 L 106.776 36.576 L 106.776 19.44 L 95.976 19.44 L 95.976 38.736 L 95.976 38.736 Q 95.976 42.264 96.444 45.288 L 96.444 45.288 L 96.444 45.288 Q 96.912 48.312 98.316 50.544 L 98.316 50.544 L 98.316 50.544 Q 99.72 52.776 102.276 54.036 L 102.276 54.036 L 102.276 54.036 Q 104.832 55.296 108.936 55.296 L 108.936 55.296 L 108.936 55.296 Q 110.88 55.296 112.536 54.792 L 112.536 54.792 L 112.536 54.792 Q 114.192 54.288 115.488 53.496 L 115.488 53.496 L 115.488 53.496 Q 116.784 52.704 117.684 51.696 L 117.684 51.696 L 117.684 51.696 Q 118.584 50.688 119.16 49.68 L 119.16 49.68 L 119.304 49.68 L 119.304 54.432 L 129.672 54.432 Z  M 137.448 0 L 137.448 54.432 L 148.248 54.432 L 148.248 0 L 137.448 0 Z  M 189.144 48.384 L 181.584 42.84 L 181.584 42.84 Q 180.216 44.712 178.38 45.9 L 178.38 45.9 L 178.38 45.9 Q 176.544 47.088 173.88 47.088 L 173.88 47.088 L 173.88 47.088 Q 170.712 47.088 168.552 45.252 L 168.552 45.252 L 168.552 45.252 Q 166.392 43.416 165.744 40.32 L 165.744 40.32 L 190.8 40.32 L 190.8 36.936 L 190.8 36.936 Q 190.8 32.76 189.648 29.376 L 189.648 29.376 L 189.648 29.376 Q 188.496 25.992 186.372 23.58 L 186.372 23.58 L 186.372 23.58 Q 184.248 21.168 181.188 19.872 L 181.188 19.872 L 181.188 19.872 Q 178.128 18.576 174.384 18.576 L 174.384 18.576 L 174.384 18.576 Q 170.352 18.576 166.788 19.872 L 166.788 19.872 L 166.788 19.872 Q 163.224 21.168 160.596 23.58 L 160.596 23.58 L 160.596 23.58 Q 157.968 25.992 156.456 29.376 L 156.456 29.376 L 156.456 29.376 Q 154.944 32.76 154.944 36.936 L 154.944 36.936 L 154.944 36.936 Q 154.944 41.112 156.456 44.496 L 156.456 44.496 L 156.456 44.496 Q 157.968 47.88 160.596 50.292 L 160.596 50.292 L 160.596 50.292 Q 163.224 52.704 166.788 54 L 166.788 54 L 166.788 54 Q 170.352 55.296 174.384 55.296 L 174.384 55.296 L 174.384 55.296 Q 178.632 55.296 182.592 53.496 L 182.592 53.496 L 182.592 53.496 Q 186.552 51.696 189.144 48.384 L 189.144 48.384 Z  M 180 32.976 L 165.744 32.976 L 165.744 32.976 Q 165.816 31.68 166.356 30.492 L 166.356 30.492 L 166.356 30.492 Q 166.896 29.304 167.868 28.404 L 167.868 28.404 L 167.868 28.404 Q 168.84 27.504 170.208 26.928 L 170.208 26.928 L 170.208 26.928 Q 171.576 26.352 173.376 26.352 L 173.376 26.352 L 173.376 26.352 Q 176.328 26.352 178.2 28.296 L 178.2 28.296 L 178.2 28.296 Q 180.072 30.24 180 32.976 L 180 32.976 Z  M 217.512 60.12 L 233.352 19.44 L 222.264 19.44 L 214.56 42.552 L 214.416 42.552 L 205.416 19.44 L 193.752 19.44 L 209.088 54.72 L 208.296 56.736 L 208.296 56.736 Q 207.72 58.176 207.216 59.256 L 207.216 59.256 L 207.216 59.256 Q 206.712 60.336 205.956 61.092 L 205.956 61.092 L 205.956 61.092 Q 205.2 61.848 204.048 62.244 L 204.048 62.244 L 204.048 62.244 Q 202.896 62.64 201.096 62.64 L 201.096 62.64 L 201.096 62.64 Q 198.504 62.64 196.056 61.56 L 196.056 61.56 L 194.616 70.416 L 194.616 70.416 Q 198.504 71.712 202.68 71.712 L 202.68 71.712 L 202.68 71.712 Q 206.568 71.712 208.944 70.956 L 208.944 70.956 L 208.944 70.956 Q 211.32 70.2 212.868 68.724 L 212.868 68.724 L 212.868 68.724 Q 214.416 67.248 215.424 65.088 L 215.424 65.088 L 215.424 65.088 Q 216.432 62.928 217.512 60.12 L 217.512 60.12 Z  M 270.504 48.384 L 262.944 42.84 L 262.944 42.84 Q 261.576 44.712 259.74 45.9 L 259.74 45.9 L 259.74 45.9 Q 257.904 47.088 255.24 47.088 L 255.24 47.088 L 255.24 47.088 Q 252.072 47.088 249.912 45.252 L 249.912 45.252 L 249.912 45.252 Q 247.752 43.416 247.104 40.32 L 247.104 40.32 L 272.16 40.32 L 272.16 36.936 L 272.16 36.936 Q 272.16 32.76 271.008 29.376 L 271.008 29.376 L 271.008 29.376 Q 269.856 25.992 267.732 23.58 L 267.732 23.58 L 267.732 23.58 Q 265.608 21.168 262.548 19.872 L 262.548 19.872 L 262.548 19.872 Q 259.488 18.576 255.744 18.576 L 255.744 18.576 L 255.744 18.576 Q 251.712 18.576 248.148 19.872 L 248.148 19.872 L 248.148 19.872 Q 244.584 21.168 241.956 23.58 L 241.956 23.58 L 241.956 23.58 Q 239.328 25.992 237.816 29.376 L 237.816 29.376 L 237.816 29.376 Q 236.304 32.76 236.304 36.936 L 236.304 36.936 L 236.304 36.936 Q 236.304 41.112 237.816 44.496 L 237.816 44.496 L 237.816 44.496 Q 239.328 47.88 241.956 50.292 L 241.956 50.292 L 241.956 50.292 Q 244.584 52.704 248.148 54 L 248.148 54 L 248.148 54 Q 251.712 55.296 255.744 55.296 L 255.744 55.296 L 255.744 55.296 Q 259.992 55.296 263.952 53.496 L 263.952 53.496 L 263.952 53.496 Q 267.912 51.696 270.504 48.384 L 270.504 48.384 Z  M 261.36 32.976 L 247.104 32.976 L 247.104 32.976 Q 247.176 31.68 247.716 30.492 L 247.716 30.492 L 247.716 30.492 Q 248.256 29.304 249.228 28.404 L 249.228 28.404 L 249.228 28.404 Q 250.2 27.504 251.568 26.928 L 251.568 26.928 L 251.568 26.928 Q 252.936 26.352 254.736 26.352 L 254.736 26.352 L 254.736 26.352 Q 257.688 26.352 259.56 28.296 L 259.56 28.296 L 259.56 28.296 Q 261.432 30.24 261.36 32.976 L 261.36 32.976 Z " fill="rgb(187,134,252)"/></g></svg>